<svg width="174" height="138" viewBox="0 0 174 138" fill="none" xmlns="http://www.w3.org/2000/svg">
<path d="M69.1594 69.0164C69.1594 87.8708 65.3093 104.916 59.108 117.228C52.8922 129.57 44.3968 137.016 35.1594 137.016C25.922 137.016 17.4266 129.57 11.2108 117.228C5.00952 104.916 1.15942 87.8708 1.15942 69.0164C1.15942 50.1619 5.00952 33.1171 11.2108 20.8045C17.4266 8.46289 25.922 1.01636 35.1594 1.01636C44.3968 1.01636 52.8922 8.46289 59.108 20.8045C65.3093 33.1171 69.1594 50.1619 69.1594 69.0164Z" stroke="#44FFA1"/>
<path d="M95.1594 69.0164C95.1594 87.8708 91.3093 104.916 85.108 117.228C78.8922 129.57 70.3968 137.016 61.1594 137.016C51.922 137.016 43.4266 129.57 37.2108 117.228C31.0095 104.916 27.1594 87.8708 27.1594 69.0164C27.1594 50.1619 31.0095 33.1171 37.2108 20.8045C43.4266 8.46289 51.922 1.01636 61.1594 1.01636C70.3968 1.01636 78.8922 8.46289 85.108 20.8045C91.3093 33.1171 95.1594 50.1619 95.1594 69.0164Z" stroke="#44FFA1"/>
<path opacity="0.75" d="M120.159 69.0164C120.159 87.8718 116.365 104.918 110.253 117.231C104.126 129.575 95.7549 137.016 86.6594 137.016C77.5639 137.016 69.1927 129.575 63.0657 117.231C56.9539 104.918 53.1594 87.8718 53.1594 69.0164C53.1594 50.1609 56.9539 33.1152 63.0657 20.8018C69.1927 8.45756 77.5639 1.01636 86.6594 1.01636C95.7549 1.01636 104.126 8.45756 110.253 20.8018C116.365 33.1152 120.159 50.1609 120.159 69.0164Z" stroke="#44FFA1"/>
<path opacity="0.5" d="M147.159 69.0164C147.159 87.8708 143.309 104.916 137.108 117.228C130.892 129.57 122.397 137.016 113.159 137.016C103.922 137.016 95.4266 129.57 89.2108 117.228C83.0095 104.916 79.1594 87.8708 79.1594 69.0164C79.1594 50.1619 83.0095 33.1171 89.2108 20.8045C95.4266 8.46289 103.922 1.01636 113.159 1.01636C122.397 1.01636 130.892 8.46289 137.108 20.8045C143.309 33.1171 147.159 50.1619 147.159 69.0164Z" stroke="#44FFA1"/>
<path opacity="0.25" d="M173.159 69.0164C173.159 87.8718 169.365 104.918 163.253 117.231C157.126 129.575 148.755 137.016 139.659 137.016C130.564 137.016 122.193 129.575 116.066 117.231C109.954 104.918 106.159 87.8718 106.159 69.0164C106.159 50.1609 109.954 33.1152 116.066 20.8018C122.193 8.45756 130.564 1.01636 139.659 1.01636C148.755 1.01636 157.126 8.45756 163.253 20.8018C169.365 33.1152 173.159 50.1609 173.159 69.0164Z" stroke="#44FFA1"/>
</svg>
