<svg width="143" height="114" viewBox="0 0 143 114" fill="none" xmlns="http://www.w3.org/2000/svg">
<path d="M55.9895 57.5173C55.9895 72.9205 52.8668 86.8407 47.8413 96.8916C42.8008 106.973 35.9301 113.017 28.4895 113.017C21.0489 113.017 14.1782 106.973 9.13773 96.8916C4.11225 86.8407 0.989502 72.9205 0.989502 57.5173C0.989502 42.1141 4.11225 28.1938 9.13773 18.1429C14.1782 8.06205 21.0489 2.01727 28.4895 2.01727C35.9301 2.01727 42.8008 8.06205 47.8413 18.1429C52.8668 28.1938 55.9895 42.1141 55.9895 57.5173Z" stroke="#44FFA1"/>
<path d="M77.6226 57.4003C77.6226 72.8035 74.4998 86.7237 69.4743 96.7746C64.4339 106.855 57.5631 112.9 50.1226 112.9C42.682 112.9 35.8112 106.855 30.7708 96.7746C25.7453 86.7237 22.6226 72.8035 22.6226 57.4003C22.6226 41.9971 25.7453 28.0768 30.7708 18.0259C35.8112 7.94504 42.682 1.90027 50.1226 1.90027C57.5631 1.90027 64.4339 7.94504 69.4743 18.0259C74.4998 28.0768 77.6226 41.9971 77.6226 57.4003Z" stroke="#44FFA1"/>
<path opacity="0.75" d="M97.8672 57.0134C97.8672 72.4165 94.7444 86.3368 89.719 96.3877C84.6785 106.469 77.8078 112.513 70.3672 112.513C62.9266 112.513 56.0558 106.469 51.0154 96.3877C45.9899 86.3368 42.8672 72.4165 42.8672 57.0134C42.8672 41.6102 45.9899 27.6899 51.0154 17.639C56.0558 7.55814 62.9266 1.51337 70.3672 1.51337C77.8078 1.51337 84.6785 7.55814 89.719 17.639C94.7444 27.6899 97.8672 41.6102 97.8672 57.0134Z" stroke="#44FFA1"/>
<path opacity="0.5" d="M119.5 56.8964C119.5 72.2995 116.377 86.2198 111.352 96.2707C106.312 106.352 99.4408 112.396 92.0002 112.396C84.5597 112.396 77.6889 106.352 72.6485 96.2707C67.623 86.2198 64.5002 72.2995 64.5002 56.8964C64.5002 41.4932 67.623 27.5729 72.6485 17.522C77.6889 7.44113 84.5597 1.39636 92.0002 1.39636C99.4408 1.39636 106.312 7.44113 111.352 17.522C116.377 27.5729 119.5 41.4932 119.5 56.8964Z" stroke="#44FFA1"/>
<path opacity="0.25" d="M141.692 57.6084C141.692 73.0116 138.57 86.9318 133.544 96.9828C128.504 107.064 121.633 113.108 114.192 113.108C106.752 113.108 99.881 107.064 94.8406 96.9828C89.8151 86.9318 86.6924 73.0116 86.6924 57.6084C86.6924 42.2052 89.8151 28.285 94.8406 18.234C99.881 8.15317 106.752 2.1084 114.192 2.1084C121.633 2.1084 128.504 8.15317 133.544 18.234C138.57 28.285 141.692 42.2052 141.692 57.6084Z" stroke="#44FFA1"/>
</svg>
