<svg width="336" height="317" viewBox="0 0 336 317" fill="none" xmlns="http://www.w3.org/2000/svg">
<path d="M190.03 171.765C203.873 145.731 221.72 125.015 239.363 112.56C257.031 100.087 274.356 95.9833 287.267 102.848C300.178 109.713 306.464 126.371 306.003 147.994C305.543 169.584 298.349 195.965 284.506 221.999C270.663 248.033 252.816 268.749 235.174 281.204C217.505 293.678 200.181 297.781 187.269 290.916C174.358 284.051 168.072 267.394 168.533 245.771C168.994 224.18 176.188 197.8 190.03 171.765Z" stroke="#44FFA1"/>
<path d="M154.03 152.765C167.873 126.731 185.72 106.015 203.363 93.5603C221.031 81.0867 238.356 76.9833 251.267 83.8483C264.178 90.7132 270.464 107.371 270.003 128.994C269.543 150.584 262.349 176.965 248.506 202.999C234.663 229.033 216.816 249.749 199.174 262.204C181.505 274.678 164.181 278.781 151.269 271.916C138.358 265.051 132.072 248.394 132.533 226.771C132.994 205.18 140.188 178.8 154.03 152.765Z" stroke="#44FFA1"/>
<path opacity="0.75" d="M119.914 134.235C133.757 108.199 151.506 87.4302 168.99 74.8901C186.503 62.3296 203.604 58.1153 216.267 64.8483C228.93 71.5813 234.999 88.1157 234.379 109.658C233.759 131.165 226.466 157.494 212.623 183.529C198.78 209.565 181.03 230.334 163.546 242.874C146.034 255.435 128.933 259.649 116.27 252.916C103.607 246.183 97.5374 229.649 98.1577 208.107C98.7771 186.599 106.07 160.27 119.914 134.235Z" stroke="#44FFA1"/>
<path opacity="0.5" d="M83.0305 113.765C96.8732 87.7311 114.72 67.0153 132.363 54.5603C150.031 42.0867 167.356 37.9833 180.267 44.8483C193.178 51.7132 199.464 68.3706 199.003 89.9935C198.543 111.584 191.349 137.965 177.506 163.999C163.663 190.033 145.816 210.749 128.174 223.204C110.505 235.678 93.1805 239.781 80.2694 232.916C67.3583 226.051 61.0724 209.394 61.5334 187.771C61.9936 166.18 69.1877 139.8 83.0305 113.765Z" stroke="#44FFA1"/>
<path opacity="0.25" d="M46.9135 95.2349C60.7569 69.1994 78.5062 48.4302 95.9902 35.8901C113.503 23.3296 130.604 19.1153 143.267 25.8483C155.93 32.5813 161.999 49.1157 161.379 70.6578C160.759 92.1651 153.466 118.494 139.623 144.529C125.78 170.565 108.03 191.334 90.5464 203.874C73.0341 216.435 55.9325 220.649 43.2696 213.916C30.6066 207.183 24.5374 190.649 25.1577 169.107C25.7771 147.599 33.0702 121.27 46.9135 95.2349Z" stroke="#44FFA1"/>
</svg>
