<svg width="1440" height="730" viewBox="0 0 1440 730" fill="none" xmlns="http://www.w3.org/2000/svg">
<path fill-rule="evenodd" clip-rule="evenodd" d="M0 0H1440V662C1440 662 1082.96 730 722 730C361.039 730 0 662 0 662V0Z" fill="#24053E"/>
<path d="M1393.38 417.201C1406.15 425.815 1415.94 436.188 1421.46 445.975C1427 455.79 1428.17 464.867 1424.01 471.035C1419.85 477.204 1411 479.52 1399.82 478.061C1388.68 476.607 1375.39 471.412 1362.62 462.799C1349.85 454.185 1340.06 443.812 1334.54 434.025C1329 424.21 1327.83 415.133 1331.99 408.965C1336.15 402.796 1345 400.48 1356.18 401.939C1367.32 403.393 1380.61 408.588 1393.38 417.201Z" stroke="#44FFA1"/>
<path d="M1405.38 399.201C1418.15 407.815 1427.94 418.188 1433.46 427.975C1439 437.79 1440.17 446.867 1436.01 453.035C1431.85 459.204 1423 461.52 1411.82 460.061C1400.68 458.607 1387.39 453.412 1374.62 444.799C1361.85 436.185 1352.06 425.812 1346.54 416.025C1341 406.21 1339.83 397.133 1343.99 390.965C1348.15 384.796 1357 382.48 1368.18 383.939C1379.32 385.393 1392.61 390.588 1405.38 399.201Z" stroke="#44FFA1"/>
<path opacity="0.75" d="M1416.38 382.201C1429.15 390.815 1438.94 401.188 1444.46 410.975C1450 420.79 1451.17 429.867 1447.01 436.035C1442.85 442.204 1434 444.52 1422.82 443.061C1411.68 441.607 1398.39 436.412 1385.62 427.799C1372.85 419.185 1363.06 408.812 1357.54 399.025C1352 389.21 1350.83 380.133 1354.99 373.965C1359.15 367.796 1368 365.48 1379.18 366.939C1390.32 368.393 1403.61 373.588 1416.38 382.201Z" stroke="#44FFA1"/>
<path opacity="0.5" d="M1428.38 364.201C1441.15 372.815 1450.94 383.188 1456.46 392.975C1462 402.79 1463.17 411.867 1459.01 418.035C1454.85 424.204 1446 426.52 1434.82 425.061C1423.68 423.607 1410.39 418.412 1397.62 409.799C1384.85 401.185 1375.06 390.812 1369.54 381.025C1364 371.21 1362.83 362.133 1366.99 355.965C1371.15 349.796 1380 347.48 1391.18 348.939C1402.32 350.393 1415.61 355.588 1428.38 364.201Z" stroke="#44FFA1"/>
<path opacity="0.25" d="M1441.38 346.201C1454.15 354.815 1463.94 365.188 1469.46 374.975C1475 384.79 1476.17 393.867 1472.01 400.035C1467.85 406.204 1459 408.52 1447.82 407.061C1436.68 405.607 1423.39 400.412 1410.62 391.799C1397.85 383.185 1388.06 372.812 1382.54 363.025C1377 353.21 1375.83 344.133 1379.99 337.965C1384.15 331.796 1393 329.48 1404.18 330.939C1415.32 332.393 1428.61 337.588 1441.38 346.201Z" stroke="#44FFA1"/>
<path d="M55.7623 287.883C69.605 261.849 87.4522 241.133 105.094 228.678C122.763 216.205 140.088 212.101 152.999 218.966C165.91 225.831 172.196 242.488 171.735 264.111C171.275 285.702 164.08 312.082 150.238 338.117C136.395 364.151 118.548 384.867 100.905 397.322C83.237 409.795 65.9123 413.899 53.0012 407.034C40.0902 400.169 33.8042 383.512 34.2652 361.889C34.7254 340.298 41.9195 313.918 55.7623 287.883Z" stroke="#44FFA1"/>
<path d="M19.7623 268.883C33.605 242.849 51.4522 222.133 69.0945 209.678C86.763 197.205 104.088 193.101 116.999 199.966C129.91 206.831 136.196 223.488 135.735 245.111C135.275 266.702 128.08 293.082 114.238 319.117C100.395 345.151 82.5478 365.867 64.9054 378.322C47.237 390.795 29.9123 394.899 17.0012 388.034C4.09015 381.169 -2.19576 364.512 -1.73483 342.889C-1.27459 321.298 5.91953 294.918 19.7623 268.883Z" stroke="#44FFA1"/>
<path opacity="0.75" d="M-14.3548 250.353C-0.511414 224.317 17.2379 203.548 34.7219 191.008C52.2342 178.447 69.3358 174.233 81.9987 180.966C94.6616 187.699 100.731 204.234 100.111 225.776C99.4912 247.283 92.1981 273.612 78.3547 299.647C64.5114 325.683 46.762 346.452 29.2781 358.992C11.7658 371.553 -5.33581 375.767 -17.9987 369.034C-30.6617 362.301 -36.7309 345.766 -36.1106 324.224C-35.4912 302.717 -28.1981 276.388 -14.3548 250.353Z" stroke="#44FFA1"/>
<path opacity="0.5" d="M-51.2377 229.883C-37.395 203.849 -19.5478 183.133 -1.90551 170.678C15.763 158.205 33.0876 154.101 45.9987 160.966C58.9098 167.831 65.1957 184.488 64.7348 206.111C64.2745 227.702 57.0804 254.082 43.2377 280.117C29.3949 306.151 11.5478 326.867 -6.09455 339.322C-23.763 351.795 -41.0877 355.899 -53.9988 349.034C-66.9098 342.169 -73.1958 325.512 -72.7348 303.889C-72.2746 282.298 -65.0805 255.918 -51.2377 229.883Z" stroke="#44FFA1"/>
<path opacity="0.25" d="M-87.3548 211.353C-73.5114 185.317 -55.7621 164.548 -38.2781 152.008C-20.7658 139.447 -3.66423 135.233 8.9987 141.966C21.6616 148.699 27.7309 165.234 27.1105 186.776C26.4912 208.283 19.1981 234.612 5.35473 260.647C-8.48862 286.683 -26.238 307.452 -43.7219 319.992C-61.2342 332.553 -78.3358 336.767 -90.9987 330.034C-103.662 323.301 -109.731 306.766 -109.111 285.224C-108.491 263.717 -101.198 237.388 -87.3548 211.353Z" stroke="#44FFA1"/>
</svg>
